<?xml version="1.0" encoding="utf-8"?>
<!-- Generator: Adobe Illustrator 15.0.0, SVG Export Plug-In  -->
<!DOCTYPE svg PUBLIC "-//W3C//DTD SVG 1.1//EN" "http://www.w3.org/Graphics/SVG/1.1/DTD/svg11.dtd" [
	<!ENTITY ns_flows "http://ns.adobe.com/Flows/1.0/">
]>
<svg version="1.1"
	 xmlns="http://www.w3.org/2000/svg" xmlns:xlink="http://www.w3.org/1999/xlink" xmlns:a="http://ns.adobe.com/AdobeSVGViewerExtensions/3.0/"
	 x="0px" y="0px" width="34px" height="46px" viewBox="-4.673 -4.016 34 46"
	 overflow="visible" enable-background="new -4.673 -4.016 34 46" xml:space="preserve">
<defs>
</defs>
<linearGradient id="SVGID_1_" gradientUnits="userSpaceOnUse" x1="12.8711" y1="0.1528" x2="12.1649" y2="40.613">
	<stop  offset="0" style="stop-color:#00B5AF"/>
	<stop  offset="0.319" style="stop-color:#00B2AB"/>
	<stop  offset="0.6407" style="stop-color:#00ADA1"/>
	<stop  offset="0.9627" style="stop-color:#00A491"/>
	<stop  offset="1" style="stop-color:#00A28F"/>
</linearGradient>
<path fill="url(#SVGID_1_)" stroke="#1C3664" stroke-width="0.3" stroke-miterlimit="10" d="M23.271,5.909
	c-1.036-1.619-2.397-2.993-4.156-4.022c-2.153-1.258-5.188-2.083-8.426-1.595C6.73,0.889,3.779,3.161,2.017,5.932
	c-1.071,1.685-1.814,3.745-1.865,6.313C0.1,14.874,0.918,16.9,1.927,18.648c0.505,0.874,0.958,1.764,1.483,2.606
	c1.573,2.523,3.273,4.925,4.74,7.527c1.979,3.508,3.612,7.292,4.539,11.84c1.34-6.9,4.4-11.936,7.661-16.873
	c1.095-1.658,2.186-3.315,3.056-5.123c0.446-0.926,0.947-1.793,1.259-2.831c0.308-1.025,0.526-2.261,0.494-3.595
	C25.096,9.596,24.352,7.6,23.271,5.909z M12.515,16.556c-2.345,0-4.246-1.9-4.246-4.247c0-2.341,1.901-4.243,4.246-4.243
	c2.343,0,4.243,1.902,4.243,4.243C16.758,14.656,14.858,16.556,12.515,16.556z"/>
<circle cx="12.514" cy="12.341" r="4.325"/>
</svg>
