<?xml version="1.0" encoding="utf-8"?>
<!-- Generator: Adobe Illustrator 15.0.0, SVG Export Plug-In  -->
<!DOCTYPE svg PUBLIC "-//W3C//DTD SVG 1.1 Tiny//EN" "http://www.w3.org/Graphics/SVG/1.1/DTD/svg11-tiny.dtd" [
	<!ENTITY ns_flows "http://ns.adobe.com/Flows/1.0/">
]>
<svg version="1.1" baseProfile="tiny"
	 xmlns="http://www.w3.org/2000/svg" xmlns:xlink="http://www.w3.org/1999/xlink" xmlns:a="http://ns.adobe.com/AdobeSVGViewerExtensions/3.0/"
	 x="0px" y="0px" width="34px" height="46px" viewBox="-4.5 -3.8 34 46" overflow="visible" xml:space="preserve">
<defs>
</defs>
<path fill="#33C6F4" stroke="#1C3664" stroke-width="0.7" stroke-miterlimit="10" d="M23.5,6.1c-1-1.6-2.4-3-4.2-4
	c-2.2-1.3-5.2-2.1-8.4-1.6C6.9,1.1,4,3.4,2.2,6.1c-1.1,1.7-1.8,3.7-1.9,6.3c-0.1,2.6,0.8,4.7,1.8,6.4c0.5,0.9,1,1.8,1.5,2.6
	C5.2,24,6.9,26.4,8.4,29c2,3.5,3.6,7.3,4.5,11.8c1.3-6.9,4.4-11.9,7.7-16.9c1.1-1.7,2.2-3.3,3.1-5.1c0.4-0.9,0.9-1.8,1.3-2.8
	c0.3-1,0.5-2.3,0.5-3.6C25.3,9.8,24.6,7.8,23.5,6.1z M12.7,16.8c-2.3,0-4.2-1.9-4.2-4.2c0-2.3,1.9-4.2,4.2-4.2
	c2.3,0,4.2,1.9,4.2,4.2C17,14.9,15.1,16.8,12.7,16.8z"/>
</svg>
