<?xml version="1.0" encoding="utf-8"?>
<!-- Generator: Adobe Illustrator 15.0.0, SVG Export Plug-In  -->
<!DOCTYPE svg PUBLIC "-//W3C//DTD SVG 1.1//EN" "http://www.w3.org/Graphics/SVG/1.1/DTD/svg11.dtd" [
	<!ENTITY ns_flows "http://ns.adobe.com/Flows/1.0/">
]>
<svg version="1.1"
	 xmlns="http://www.w3.org/2000/svg" xmlns:xlink="http://www.w3.org/1999/xlink" xmlns:a="http://ns.adobe.com/AdobeSVGViewerExtensions/3.0/"
	 x="0px" y="0px" width="34px" height="46px" viewBox="-4.573 -3.916 34 46"
	 overflow="visible" enable-background="new -4.573 -3.916 34 46" xml:space="preserve">
<defs>
</defs>
<linearGradient id="SVGID_1_" gradientUnits="userSpaceOnUse" x1="12.1113" y1="0.2622" x2="14.2277" y2="40.6453">
	<stop  offset="0.1104" style="stop-color:#5DBBEA"/>
	<stop  offset="1" style="stop-color:#4CA3D2"/>
</linearGradient>
<path fill="url(#SVGID_1_)" stroke="#1C3664" stroke-width="0.5" stroke-miterlimit="10" d="M23.372,6.009
	c-1.036-1.619-2.397-2.993-4.156-4.022c-2.153-1.258-5.188-2.083-8.426-1.595C6.83,0.989,3.879,3.261,2.117,6.032
	c-1.071,1.685-1.814,3.745-1.865,6.313C0.2,14.974,1.019,17,2.027,18.749c0.505,0.874,0.958,1.764,1.483,2.606
	c1.573,2.523,3.273,4.925,4.74,7.527c1.979,3.508,3.612,7.292,4.539,11.84c1.34-6.9,4.4-11.936,7.661-16.873
	c1.095-1.658,2.186-3.315,3.056-5.123c0.446-0.926,0.947-1.793,1.259-2.831c0.308-1.025,0.526-2.261,0.494-3.595
	C25.196,9.696,24.452,7.7,23.372,6.009z M12.615,16.656c-2.345,0-4.246-1.9-4.246-4.247c0-2.341,1.901-4.243,4.246-4.243
	c2.343,0,4.243,1.902,4.243,4.243C16.858,14.756,14.958,16.656,12.615,16.656z"/>
<circle cx="12.614" cy="12.428" r="4.645"/>
</svg>
